<?xml version="1.0" encoding="utf-8"?>
<!-- Svg Vector Icons : http://www.onlinewebfonts.com/icon -->
<!DOCTYPE svg PUBLIC "-//W3C//DTD SVG 1.1//EN" "http://www.w3.org/Graphics/SVG/1.1/DTD/svg11.dtd">
<svg version="1.1" xmlns="http://www.w3.org/2000/svg" xmlns:xlink="http://www.w3.org/1999/xlink" x="0px" y="0px" viewBox="0 0 1000 1000" enable-background="new 0 0 1000 1000" xml:space="preserve">
<metadata> Svg Vector Icons : http://www.onlinewebfonts.com/icon </metadata>
<g><g transform="translate(0.000000,512.000000) scale(0.100000,-0.100000)"><path d="M4435.4,4647.7l-555.1-371.3l-555.1,36.4c-304.3,19.1-604.8,40.2-666.1,45.9l-109.1,7.7l-296.7-601l-294.8-602.9l-602.9-294.8l-601-296.7l7.7-109.1c5.7-61.2,26.8-359.8,45.9-666.1l36.4-555.1L471.3,681.8L100,120.9L471.3-438l373.2-560.8l-36.4-555.1c-19.1-304.3-40.2-604.9-45.9-666.1l-7.7-109.1l601-296.7l602.9-294.8l294.8-602.9l296.7-602.9l99.5,9.6c55.5,5.8,356,24.9,666.1,45.9l564.6,36.4l560.8-373.2L5000-4779l560.8,373.2l558.9,371.3l555.1-36.4c306.3-19.1,604.8-40.2,666.1-45.9l109.1-7.6l296.7,601l294.8,602.9l602.9,294.8l601,296.7l-7.6,109.1c-5.8,61.2-26.8,361.7-45.9,666.1l-36.4,555.1L9528.7-438L9900,120.9l-371.3,560.8l-373.2,558.9l36.4,564.6c21,310.1,40.2,610.6,45.9,666.1l9.6,99.5l-602.9,296.7l-602.9,294.8l-294.8,602.9l-296.7,601l-109.1-7.7c-61.3-5.7-359.8-26.8-666.1-45.9l-555.1-36.4l-558.9,373.2c-308.2,202.9-562.7,371.3-564.7,369.4C4992.3,5019,4741.6,4850.6,4435.4,4647.7z M5497.7,4197.9l488.1-325.4h114.8c63.2,0,296.7,13.4,516.8,28.7c222,15.3,446,28.7,499.6,28.7h97.6l260.3-535.9l260.3-535.9l537.8-262.2l535.9-260.3l-1.9-116.8c0-65.1-15.3-336.9-34.5-604.8l-32.5-488.1l335-501.5l333-503.4l-333-501.5l-335-503.4l32.5-488.1c19.1-268,34.5-539.8,34.5-604.9l1.9-116.7L8273-2353.9l-537.8-260.3l-260.3-537.8L7214.6-3688l-116.8,1.9c-65.1,0-336.9,15.3-604.8,34.5l-488.1,32.5l-501.5-335l-503.4-333l-503.4,333l-501.5,335l-488.1-32.5c-268-19.1-539.8-34.5-604.8-34.5l-116.8-1.9l-260.3,535.9l-262.2,537.8L1727-2353.9L1191-2093.6l1.9,116.7c0,65.1,15.3,336.9,34.5,604.9l32.5,488.1L925-382.4l-333,503.4l333,501.5l335,503.4l-32.5,488.1c-19.1,268-34.5,539.8-34.5,604.8l-1.9,116.8l535.9,260.3l537.9,262.2l260.3,535.9l260.3,535.9h97.6c53.6,0,279.5-13.4,499.6-28.7c222-15.3,453.6-28.7,516.8-28.7h114.8l488.1,325.4c268,178,491.9,325.4,497.7,325.4S5229.7,4375.9,5497.7,4197.9z"/><path d="M2128.9,31v-886.2h181.8h181.8v585.7c0,321.6,7.7,580,15.3,574.2c7.7-3.8,174.2-268,367.5-583.8l354.1-576.1h197.1h195.2V25.2v880.5l-162.7,3.8c-90,0-174.2,1.9-185.7,3.8c-19.1,1.9-26.8-130.2-34.4-578l-9.6-580l-354.1,578.1l-354.1,578l-197.1,1.9l-195.2,1.9V31z"/><path d="M4249.7,909.5l-149.3-5.7V25.2v-880.5h669.9h669.9v162.7v162.7h-478.5h-478.5v220.1v220.1h430.7h430.7V63.5v153.1h-430.7h-430.7v191.4v191.4h468.9h468.9v153.1v153.1l-99.5,1.9C4722.5,913.4,4372.2,915.3,4249.7,909.5z"/><path d="M5817.3,909.5c-93.8-3.8-109.1-11.5-101.4-38.3c26.8-97.6,451.7-1709.3,451.7-1716.9c0-5.7,90-9.6,199.1-9.6h199.1l135.9,560.8c76.6,306.3,143.6,576.1,153.1,595.3c9.6,26.8,59.3-139.7,164.6-558.9l149.3-599.1l193.3,5.8l193.3,5.7l233.5,869c130.2,478.5,231.6,874.7,225.9,878.6c-9.6,11.5-356,9.6-365.6-1.9c-3.8-3.8-68.9-266.1-145.5-583.8c-76.6-317.7-143.6-578-149.3-578s-74.7,260.3-155,580l-143.6,578l-170.4,9.6c-124.4,7.7-178,3.8-193.3-13.4c-11.5-13.4-84.2-271.8-160.8-574.2c-76.6-302.4-145.5-557-151.2-564.6c-5.7-7.7-70.8,243.1-143.6,555.1c-72.7,312-137.8,574.2-143.6,580C6075.7,907.6,5939.8,917.2,5817.3,909.5z"/></g></g>
</svg>